<?xml version="1.0" standalone="no"?>
<!DOCTYPE svg PUBLIC "-//W3C//DTD SVG 20010904//EN"
 "http://www.w3.org/TR/2001/REC-SVG-20010904/DTD/svg10.dtd">
<svg version="1.0" xmlns="http://www.w3.org/2000/svg"
 width="270.000000pt" height="270.000000pt" viewBox="0 0 270.000000 270.000000"
 preserveAspectRatio="xMidYMid meet">
<metadata>
Created by potrace 1.11, written by Peter Selinger 2001-2013
</metadata>
<g transform="translate(0.000000,270.000000) scale(0.100000,-0.100000)"
fill="#000000" stroke="none">
<path d="M1258 2575 c-2 -2 -34 -5 -73 -9 -38 -3 -85 -10 -102 -15 -18 -5 -33
-8 -33 -6 0 6 -159 -50 -215 -75 -159 -73 -337 -219 -440 -365 -100 -140 -172
-313 -198 -475 -15 -89 -17 -321 -4 -375 3 -11 10 -42 16 -70 72 -322 303
-612 606 -763 57 -28 164 -69 202 -77 10 -2 50 -10 88 -19 72 -16 327 -16 426
-1 43 7 49 5 95 -30 48 -37 190 -111 229 -120 11 -2 49 -11 85 -18 115 -26
265 -18 409 22 l43 12 -77 51 c-110 72 -295 260 -295 300 0 5 28 35 62 66 185
172 326 439 355 675 38 309 -40 607 -223 847 -181 239 -474 406 -764 435 -65
7 -188 13 -192 10z"/>
</g>
</svg>
